<?xml version="1.0" encoding="iso-8859-1"?>
<!-- Generator: Adobe Illustrator 19.0.0, SVG Export Plug-In . SVG Version: 6.00 Build 0)  -->
<svg version="1.1" id="Capa_1" xmlns="http://www.w3.org/2000/svg" xmlns:xlink="http://www.w3.org/1999/xlink" x="0px" y="0px"
	 viewBox="0 0 365.714 365.714" style="enable-background:new 0 0 365.714 365.714;" xml:space="preserve">
<g>
	<g>
		<g>
			<polygon points="102.922,271.673 188.604,271.673 196.441,271.673 150.988,206.89 			" fill-opacity="0.5413"/>
			<path d="M239.216,88.816c0.369,0.044,0.742,0.044,1.111,0h68.441l-73.665-73.143v67.918
				C234.795,86.171,236.637,88.51,239.216,88.816z" fill-opacity="0.5413"/>
			<path d="M207.412,170.318c6.059,0,10.971-4.912,10.971-10.971c0-6.059-4.912-10.971-10.971-10.971s-10.971,4.912-10.971,10.971
				c0,0,0,0,0,0C196.441,165.406,201.353,170.318,207.412,170.318z" fill-opacity="0.5413"/>
			<path d="M240.327,109.714c-14.427,0-26.122-11.695-26.122-26.122V0H73.143C55.83,0,41.796,14.035,41.796,31.347v303.02
				c0,17.312,14.034,31.347,31.347,31.347h219.429c17.312,0,31.347-14.034,31.347-31.347V109.714H240.327z M207.412,127.478
				c17.601,0,31.869,14.268,31.869,31.869s-14.268,31.869-31.869,31.869s-31.869-14.268-31.869-31.869
				S189.811,127.478,207.412,127.478z M282.645,285.78c-1.679,3.796-5.273,6.392-9.404,6.792H82.025
				c-4.131-0.4-7.726-2.996-9.404-6.792c-1.728-3.921-1.334-8.453,1.045-12.016l68.963-92.996c2.024-2.57,5.089-4.102,8.359-4.18
				c3.33-0.188,6.511,1.402,8.359,4.18l44.931,63.739l21.42-24.555c2.028-2.503,5.144-3.867,8.359-3.657
				c3.196,0.281,6.085,2.015,7.837,4.702l39.706,53.29C283.986,277.652,284.385,282.038,282.645,285.78z" fill-opacity="0.5413"/>
			<polygon points="216.816,263.314 222.041,271.673 252.343,271.673 233.012,245.029 			" fill-opacity="0.5413"/>
		</g>
	</g>
</g>
<g>
</g>
<g>
</g>
<g>
</g>
<g>
</g>
<g>
</g>
<g>
</g>
<g>
</g>
<g>
</g>
<g>
</g>
<g>
</g>
<g>
</g>
<g>
</g>
<g>
</g>
<g>
</g>
<g>
</g>
</svg>
