<svg height="512pt" viewBox="0 0 512 512" width="512pt" xmlns="http://www.w3.org/2000/svg"><path d="m0 0v512h512v-512zm145.96875 423.246094v30h-87.667969v-87.667969h30v36.203125l84.476563-84.164062 21.175781 21.253906-84.691406 84.375zm26.808594-228.863282-84.476563-84.164062v36.203125h-30v-87.667969h87.667969v30h-36.707031l84.691406 84.375zm280.921875 258.863282h-87.667969v-30h36.707031l-84.691406-84.375 21.175781-21.253906 84.476563 84.164062v-36.203125h30zm0-306.824219h-30v-36.203125l-84.476563 84.164062-21.175781-21.253906 84.691406-84.375h-36.707031v-30h87.667969zm0 0" fill-opacity="0.5413"/></svg>