<svg xmlns="http://www.w3.org/2000/svg" height="512pt" version="1.1" viewBox="0 -43 512.00002 512" width="512pt">
<g id="surface1">
<path d="M 474.707031 87.382812 L 100.183594 87.382812 C 79.875 87.382812 62.769531 103.875 62.769531 124.183594 L 62.769531 425.847656 L 474.707031 425.847656 C 495.015625 425.847656 512 408.738281 512 388.308594 L 512 124.183594 C 512 103.878906 495.136719 87.382812 474.707031 87.382812 Z M 252.429688 250.339844 C 248.246094 246.769531 247.875 240.492188 251.324219 236.308594 L 272.367188 211.691406 L 235.570312 211.691406 C 210.707031 211.691406 190.398438 232.125 190.398438 256.984375 C 190.398438 281.847656 210.707031 302.277344 235.570312 302.277344 C 240.984375 302.277344 245.414062 306.707031 245.414062 312.121094 C 245.414062 317.539062 240.984375 321.96875 235.570312 321.96875 C 199.753906 321.96875 170.707031 292.800781 170.707031 256.984375 C 170.707031 221.167969 199.753906 191.875 235.570312 191.875 L 272.246094 191.875 L 251.320312 167.878906 C 247.753906 163.816406 248.246094 157.660156 252.304688 154.214844 C 256.367188 150.644531 262.644531 151.136719 266.214844 155.199219 L 301.167969 195.691406 C 301.167969 195.691406 301.167969 195.691406 301.292969 195.816406 C 301.414062 195.9375 301.539062 196.0625 301.539062 196.183594 C 301.660156 196.308594 301.785156 196.429688 301.785156 196.554688 C 301.90625 196.675781 301.90625 196.800781 302.03125 196.921875 C 302.152344 197.046875 302.152344 197.167969 302.277344 197.292969 C 302.398438 197.414062 302.398438 197.539062 302.523438 197.660156 C 302.648438 197.785156 302.648438 197.90625 302.769531 198.03125 C 302.769531 198.152344 302.894531 198.277344 302.894531 198.398438 C 302.894531 198.519531 303.015625 198.644531 303.015625 198.890625 C 303.015625 199.015625 303.140625 199.136719 303.140625 199.257812 C 303.140625 199.382812 303.261719 199.628906 303.261719 199.75 C 303.261719 199.875 303.386719 200 303.386719 200.121094 C 303.386719 200.367188 303.507812 200.488281 303.507812 200.734375 C 303.507812 200.859375 303.632812 200.984375 303.632812 201.105469 C 303.632812 201.472656 303.878906 201.71875 303.878906 202.089844 C 303.878906 202.089844 303.632812 202.089844 303.632812 202.210938 C 303.632812 202.460938 303.386719 202.828125 303.386719 203.074219 C 303.386719 203.195312 303.386719 203.320312 303.386719 203.441406 C 303.386719 203.6875 303.386719 203.8125 303.261719 204.058594 C 303.261719 204.179688 303.261719 204.304688 303.140625 204.425781 C 303.140625 204.550781 303.015625 204.796875 303.015625 204.917969 C 303.015625 205.042969 302.894531 205.164062 302.894531 205.289062 C 302.894531 205.410156 302.769531 205.535156 302.769531 205.78125 C 302.769531 205.902344 302.648438 206.027344 302.648438 206.148438 C 302.523438 206.273438 302.523438 206.394531 302.398438 206.640625 C 302.277344 206.765625 302.277344 206.886719 302.152344 207.011719 C 302.03125 207.132812 302.03125 207.257812 301.90625 207.378906 C 301.785156 207.503906 301.785156 207.625 301.660156 207.75 C 301.539062 207.871094 301.414062 207.996094 301.414062 208.117188 C 301.292969 208.242188 301.292969 208.363281 301.167969 208.484375 C 301.167969 208.484375 301.167969 208.484375 301.167969 208.609375 L 266.214844 249.347656 C 264.246094 251.5625 261.539062 252.792969 258.707031 252.792969 C 256.492188 252.800781 254.277344 251.9375 252.429688 250.339844 Z M 331.324219 322.460938 L 294.644531 322.460938 L 315.570312 346.460938 C 319.140625 350.523438 318.648438 356.675781 314.585938 360.121094 C 312.738281 361.722656 310.398438 362.460938 308.183594 362.460938 C 305.476562 362.460938 302.648438 361.355469 300.675781 359.015625 L 265.722656 318.523438 C 265.722656 318.523438 265.722656 318.523438 265.601562 318.398438 C 265.476562 318.277344 265.355469 318.152344 265.355469 318.03125 C 265.230469 317.90625 265.109375 317.785156 265.109375 317.660156 C 264.984375 317.539062 264.984375 317.414062 264.859375 317.292969 C 264.738281 317.167969 264.738281 317.046875 264.613281 316.921875 C 264.492188 316.800781 264.492188 316.675781 264.367188 316.554688 C 264.246094 316.429688 264.246094 316.308594 264.121094 316.1875 C 264.121094 316.0625 264 315.9375 264 315.816406 C 264 315.695312 263.875 315.570312 263.875 315.324219 C 263.875 315.203125 263.75 315.078125 263.75 314.957031 C 263.75 314.832031 263.628906 314.585938 263.628906 314.464844 C 263.628906 314.339844 263.628906 314.21875 263.503906 314.09375 C 263.503906 313.847656 263.503906 313.726562 263.382812 313.480469 C 263.382812 313.355469 263.382812 313.234375 263.382812 313.109375 C 263.382812 312.742188 263.382812 312.496094 263.382812 312.125 C 263.382812 312.125 263.257812 312.125 263.257812 312.003906 C 263.257812 311.757812 263.257812 311.386719 263.257812 311.140625 C 263.257812 311.015625 263.257812 310.894531 263.257812 310.773438 C 263.257812 310.523438 263.257812 310.402344 263.382812 310.15625 C 263.382812 310.03125 263.382812 309.910156 263.503906 309.789062 C 263.503906 309.664062 263.628906 309.417969 263.628906 309.296875 C 263.628906 309.171875 263.75 309.046875 263.75 308.925781 C 263.75 308.804688 263.875 308.679688 263.875 308.433594 C 263.875 308.3125 264 308.1875 264 308.066406 C 264.121094 307.941406 264.121094 307.820312 264.246094 307.574219 C 264.367188 307.449219 264.367188 307.328125 264.492188 307.203125 C 264.613281 307.082031 264.613281 306.957031 264.738281 306.835938 C 264.859375 306.710938 264.859375 306.589844 264.984375 306.464844 C 265.109375 306.34375 265.230469 306.21875 265.230469 306.097656 C 265.355469 305.972656 265.355469 305.851562 265.476562 305.726562 C 265.476562 305.726562 265.476562 305.726562 265.476562 305.605469 L 300.429688 264.867188 C 304 260.683594 310.152344 260.3125 314.339844 263.882812 C 318.523438 267.453125 318.890625 273.730469 315.445312 277.914062 L 294.402344 302.527344 L 331.199219 302.527344 C 356.0625 302.527344 376.371094 282.097656 376.371094 257.113281 C 376.371094 232.128906 356.0625 211.699219 331.199219 211.699219 C 325.785156 211.699219 321.355469 207.269531 321.355469 201.851562 C 321.355469 196.4375 325.785156 192.003906 331.199219 192.003906 C 367.015625 192.003906 396.0625 221.296875 396.0625 257.113281 C 396.0625 292.929688 367.015625 322.460938 331.324219 322.460938 Z M 331.324219 322.460938 " style=" stroke:none;fill-rule:nonzero;fill:#000000;fill-opacity:0.54;" />
<path d="M 236.429688 67.691406 L 192.863281 13.90625 C 185.847656 5.292969 175.382812 0 164.308594 0 L 37.292969 0 C 16.863281 0 0 17.109375 0 37.539062 L 0 388.429688 C 0 408.738281 16.863281 425.96875 37.292969 425.96875 L 43.078125 425.96875 L 43.078125 124.183594 C 43.078125 92.921875 69.046875 67.691406 100.183594 67.691406 Z M 236.429688 67.691406 " style=" stroke:none;fill-rule:nonzero;fill:#000000;fill-opacity:0.54;" />
</g>
</svg>